<svg xmlns="http://www.w3.org/2000/svg" width="40" height="20" viewBox="0 0 40 20">
  <g fill="none" fill-rule="evenodd">
    <path fill="#000" fill-rule="nonzero" d="M20.477722,3.33072414 L20.0359954,2.22222223 L18.1616139,2.22222223 C17.5502815,2.22222223 17.0546985,1.72476084 17.0546985,1.11111111 C17.0546985,0.497461389 17.5502815,0 18.1616139,0 L20.7854137,0 C21.2380366,0 21.6450591,0.27661216 21.813159,0.698454804 L23.1143883,3.96385806 L24.1363479,6.18649685 C24.7395978,6.01672068 25.3757425,5.92592593 26.0330133,5.92592593 C29.9047862,5.92592593 33.0434783,9.07651473 33.0434783,12.962963 C33.0434783,16.8494113 29.9047862,20 26.0330133,20 C22.1612404,20 19.0225483,16.8494113 19.0225483,12.962963 C19.0225483,10.5281474 20.2544473,8.38214775 22.1267312,7.11872016 L21.5018309,5.75963759 L16.467027,13.5667624 C16.2630281,13.8830894 15.9132128,14.0740741 15.5378143,14.0740741 L13.9340359,14.0740741 C13.4033262,17.4325766 10.5055904,20 7.010465,20 C3.13869209,20 0,16.8494113 0,12.962963 C0,9.07651473 3.13869209,5.92592593 7.010465,5.92592593 C7.96210435,5.92592593 8.86945664,6.1162601 9.69680175,6.46107291 L11.0445692,4.26264945 L10.804295,3.53909465 L8.97831482,3.53909465 C8.36698226,3.53909465 7.87139929,3.04163326 7.87139929,2.42798354 C7.87139929,1.81433381 8.36698226,1.31687243 8.97831482,1.31687243 L11.6021146,1.31687243 C12.0785647,1.31687243 12.5015601,1.62290586 12.6522269,2.07661935 L13.0571247,3.29591701 L20.477722,3.33072414 Z M23.0720765,9.17473195 C21.9543334,10.0562388 21.2363793,11.4254395 21.2363793,12.962963 C21.2363793,15.6221118 23.3839056,17.7777778 26.0330133,17.7777778 C28.682121,17.7777778 30.8296472,15.6221118 30.8296472,12.962963 C30.8296472,10.3038142 28.682121,8.14814815 26.0330133,8.14814815 C25.7073534,8.14814815 25.3892737,8.18072511 25.0818317,8.24280965 L27.0380476,12.4973428 C27.2942315,13.0545118 27.0519405,13.7146518 26.4968754,13.9718068 C25.9418101,14.2289616 25.2841628,13.9857521 25.027979,13.4285831 L23.0720765,9.17473195 Z M13.9340359,11.8518519 L14.9357661,11.8518519 L19.0023687,5.54605031 L12.8748226,5.5173084 L11.5813209,7.6272157 C12.8103662,8.68903968 13.6684948,10.171422 13.9340359,11.8518519 Z M8.51450046,8.38959466 C8.04143934,8.23292554 7.53581519,8.14814815 7.010465,8.14814815 C4.36135721,8.14814815 2.21383105,10.3038142 2.21383105,12.962963 C2.21383105,15.6221118 4.36135721,17.7777778 7.010465,17.7777778 C9.27859515,17.7777778 11.1790383,16.1975555 11.678747,14.0740741 L7.010465,14.0740741 C6.14450208,14.0740741 5.61390224,13.1209324 6.06775118,12.3806325 L8.51450046,8.38959466 Z M10.3992283,9.55539703 L8.99136164,11.8518519 L11.678747,11.8518519 C11.4705281,10.9670383 11.0191098,10.176547 10.3992283,9.55539703 Z"/>
    <path stroke="#000" stroke-linecap="round" stroke-linejoin="round" stroke-width="1.739" d="M26.0869565,19.1304348 L28.8141202,14.3578984 C29.2785798,13.5450941 30.142954,13.0434783 31.0791023,13.0434783 L34.8015752,13.0434783 C35.8451268,13.0434783 36.7882698,13.6653831 37.1993449,14.6245584 L39.1304348,19.1304348 L39.1304348,19.1304348"/>
  </g>
</svg>
