<svg xmlns="http://www.w3.org/2000/svg" width="17" height="17" viewBox="0 0 17 17">
  <path fill-rule="evenodd" d="M21.3284271,11.4142136 C22.1568542,11.4142136 22.8284271,12.0857864 22.8284271,12.9142136 L22.8276602,19.5606602 L30.6819805,19.5606602 C31.5104076,19.5606602 32.1819805,20.232233 32.1819805,21.0606602 C32.1819805,21.8890873 31.5104076,22.5606602 30.6819805,22.5606602 L22.8276602,22.5606602 L22.8284271,29.9142136 C22.8284271,30.7426407 22.1568542,31.4142136 21.3284271,31.4142136 C20.5,31.4142136 19.8284271,30.7426407 19.8284271,29.9142136 L19.8276602,22.5606602 L12.6819805,22.5606602 C11.8535534,22.5606602 11.1819805,21.8890873 11.1819805,21.0606602 C11.1819805,20.232233 11.8535534,19.5606602 12.6819805,19.5606602 L19.8276602,19.5606602 L19.8284271,12.9142136 C19.8284271,12.0857864 20.5,11.4142136 21.3284271,11.4142136 Z" transform="rotate(45 30.253 -1.132)"/>
</svg>
