<svg xmlns="http://www.w3.org/2000/svg" width="12" height="22" viewBox="0 0 12 22">
  <path d="M4.68,29.9025403 C4.68,30.5086506 5.16825132,31 5.78,31 C6.38751324,31 6.88,30.503507 6.88,29.9025403 L6.88,20.1079876 C6.88,19.7419695 7.16334442,19.3655601 7.51717416,19.2660425 L7.53910372,19.2598746 C9.59031046,18.5352957 11.06,16.57928 11.06,14.28 C11.06,11.3639365 8.69606348,9 5.78,9 C2.86393652,9 0.5,11.3639365 0.5,14.28 C0.5,16.5800367 1.97065701,18.5365831 4.0229216,19.2605896 L4.04478375,19.2667337 C4.39560402,19.3653273 4.68,19.7424893 4.68,20.1079876 L4.68,29.9025403 Z M2.7,14.28 C2.7,12.578963 4.08242425,11.2 5.78,11.2 C7.48103701,11.2 8.86,12.5824243 8.86,14.28 C8.86,15.981037 7.47757575,17.36 5.78,17.36 C4.07896299,17.36 2.7,15.9775757 2.7,14.28 Z" transform="translate(0 -9)"/>
</svg>
