<svg xmlns="http://www.w3.org/2000/svg" width="24" height="15" viewBox="0 0 24 15">
  <path d="M49.8732928,14.4980431 L49.5524598,13.6666667 L48.191067,13.6666667 C47.7470465,13.6666667 47.3870968,13.2935706 47.3870968,12.8333333 C47.3870968,12.373096 47.7470465,12 48.191067,12 L50.0967742,12 C50.4255213,12 50.7211482,12.2074591 50.8432418,12.5238411 L51.7883452,14.9728935 L52.5306106,16.6398726 C52.9687605,16.5125405 53.4308024,16.4444444 53.9081886,16.4444444 C56.7203184,16.4444444 59,18.807386 59,21.7222223 C59,24.6370584 56.7203184,27 53.9081886,27 C51.0960588,27 48.8163772,24.6370584 48.8163772,21.7222223 C48.8163772,19.8961105 49.7111249,18.2866108 51.0709942,17.3390401 L50.6171193,16.3197282 L46.9602617,22.1750718 C46.8120941,22.412317 46.5580177,22.5555556 46.2853599,22.5555556 L45.1205103,22.5555556 C44.7350475,25.0744325 42.6303762,27 40.0918114,27 C37.2796816,27 35,24.6370584 35,21.7222223 C35,18.807386 37.2796816,16.4444444 40.0918114,16.4444444 C40.7830021,16.4444444 41.4420264,16.5871951 42.0429402,16.8458047 L43.021845,15.1969871 L42.8473301,14.654321 L41.5210918,14.654321 C41.0770713,14.654321 40.7171216,14.2812249 40.7171216,13.8209877 C40.7171216,13.3607504 41.0770713,12.9876543 41.5210918,12.9876543 L43.426799,12.9876543 C43.7728523,12.9876543 44.0800805,13.2171794 44.1895122,13.5574645 L44.4835958,14.4719378 L49.8732928,14.4980431 Z M51.7576135,18.881049 C50.945779,19.5421791 50.4243176,20.5690796 50.4243176,21.7222223 C50.4243176,23.7165838 51.9840998,25.3333333 53.9081886,25.3333333 C55.8322774,25.3333333 57.3920595,23.7165838 57.3920595,21.7222223 C57.3920595,19.7278606 55.8322774,18.1111111 53.9081886,18.1111111 C53.6716567,18.1111111 53.4406303,18.1355438 53.2173304,18.1821072 L54.6381609,21.3730071 C54.8242313,21.7908838 54.6482515,22.2859888 54.2450989,22.4788551 C53.8419463,22.6717212 53.3642867,22.4893141 53.1782163,22.0714373 L51.7576135,18.881049 Z M45.1205103,20.8888889 L45.8480828,20.8888889 L48.8017204,16.1595377 L44.3511869,16.1379813 L43.4116962,17.7204118 C44.3043713,18.5167798 44.9276436,19.6285665 45.1205103,20.8888889 Z M41.1842161,18.292196 C40.8406244,18.1746942 40.4733816,18.1111111 40.0918114,18.1111111 C38.1677226,18.1111111 36.6079405,19.7278606 36.6079405,21.7222223 C36.6079405,23.7165838 38.1677226,25.3333333 40.0918114,25.3333333 C41.7391902,25.3333333 43.119512,24.1481666 43.4824584,22.5555556 L40.0918114,22.5555556 C39.4628489,22.5555556 39.0774658,21.8406993 39.4071035,21.2854744 L41.1842161,18.292196 Z M42.5531237,19.1665478 L41.5305679,20.8888889 L43.4824584,20.8888889 C43.3312257,20.2252787 43.0033535,19.6324102 42.5531237,19.1665478 Z" transform="translate(-35 -12)"/>
</svg>
