<svg xmlns="http://www.w3.org/2000/svg" width="10" height="16" viewBox="0 0 10 16">
  <path fill="#1A1919" fill-rule="evenodd" d="M52.2233333,17.6225882 C52.2233333,16.7708235 52.9242857,16.0776471 53.7866667,16.0776471 C54.6485714,16.0776471 55.3495238,16.7708235 55.3495238,17.6225882 C55.3495238,18.4743529 54.6485714,19.1675294 53.7866667,19.1675294 C52.9242857,19.1675294 52.2233333,18.4743529 52.2233333,17.6225882 Z M53.1090476,30.8809412 L52.1861905,26.4663529 L51.172381,25.6884706 C50.6557143,25.2757647 50.5052381,24.728 50.6814286,23.9091765 L51.2742857,21.1411765 L50.212381,21.5251765 L49.6747619,23.9717647 C49.6371429,24.216 49.4390476,24.6588235 48.9428571,24.6588235 C48.8804762,24.6588235 48.8147619,24.6512941 48.7480952,24.6362353 C48.4752381,24.5736471 48.3357143,24.4207059 48.2666667,24.3030588 C48.1019048,24.0235294 48.1771429,23.6955294 48.1966667,23.6230588 L48.9028571,20.3750588 L51.3042857,19.5369412 C51.3090476,19.5345882 51.7138095,19.3741176 52.39,19.3741176 C53.0647619,19.3741176 53.7661905,19.528 54.4747619,19.832 L54.6647619,19.9134118 L53.5757143,25.4856471 L54.6238095,30.5562353 C54.6419048,30.6272941 54.7147619,30.9609412 54.5490476,31.2432941 C54.4528571,31.408 54.2942857,31.5223529 54.0904762,31.5741176 C54.0166667,31.5915294 53.9480952,31.5995294 53.882381,31.5995294 C53.3757143,31.5995294 53.1547619,31.1294118 53.1090476,30.8809412 Z M55.1533333,20.2065882 C55.4895238,20.4112941 55.6742857,20.6334118 55.7752381,21.0602353 L55.7790476,21.0809412 L55.9790476,22.4221176 L57.4342857,23.0875294 C57.4538095,23.0945882 57.7571429,23.2183529 57.8842857,23.5214118 C57.9390476,23.6522353 57.9790476,23.8658824 57.8580952,24.1388235 C57.7438095,24.3990588 57.5633333,24.5072941 57.4319048,24.5524706 C57.35,24.5802353 57.2685714,24.5910588 57.1919048,24.5910588 C56.9628571,24.5910588 56.7757143,24.496 56.7490476,24.4818824 L54.6152381,23.5054118 L54.5642857,23.2075294 L54.8357143,21.8145882 L55.0485714,20.7567059 L55.1533333,20.2065882 Z M50.3414286,25.6103529 C50.4866667,25.8494118 50.6133333,25.9185882 50.7771429,26.0432941 L51.2157143,26.3731765 L51.667619,26.7214118 L50.7714286,30.9416471 C50.7680952,30.9675294 50.7061905,31.3185882 50.4247619,31.5077647 C50.3414286,31.5637647 50.2147619,31.6207059 50.0442857,31.6207059 C49.9861905,31.6207059 49.9233333,31.6141176 49.8552381,31.5985882 C49.5752381,31.5327059 49.4333333,31.3788235 49.3628571,31.2607059 C49.1942857,30.9788235 49.277619,30.6578824 49.287619,30.6221176 L50.3414286,25.6103529 Z" transform="translate(-48 -16)"/>
</svg>
