<svg xmlns="http://www.w3.org/2000/svg" width="24" height="22" viewBox="0 0 24 22">
  <path d="M0.464237517,15.9823645 C-0.273632797,15.9823645 -0.871794872,15.3933065 -0.871794872,14.6666667 C-0.871794872,13.9400268 -0.273632797,13.3509688 0.464237517,13.3509688 L9.05901494,13.3509688 L5.989093,10.4569678 C5.44274627,9.94192925 5.44274627,9.09972291 5.989093,8.58468441 C6.52593128,8.07860947 7.38962684,8.07860947 7.92646513,8.58468441 L13.3851117,13.730525 C13.9314585,14.2455635 13.9314585,15.0877698 13.3851117,15.6028083 L7.92646513,20.7486489 C7.38962684,21.2547239 6.52593128,21.2547239 5.989093,20.7486489 C5.44274627,20.2336104 5.44274627,19.3914041 5.989093,18.8763656 L9.05901494,15.9823645 L0.464237517,15.9823645 Z" transform="rotate(90 6.462 14.667)"/>
  <path d="M11.5411606,8.64903121 C10.8032903,8.64903121 10.2051282,8.05997321 10.2051282,7.33333333 C10.2051282,6.60669346 10.8032903,6.01763546 11.5411606,6.01763546 L20.135938,6.01763546 L17.0660161,3.12363442 C16.5196693,2.60859592 16.5196693,1.76638958 17.0660161,1.25135107 C17.6028544,0.745276137 18.4665499,0.745276137 19.0033882,1.25135107 L24.4620348,6.39719166 C25.0083816,6.91223016 25.0083816,7.75443651 24.4620348,8.26947501 L19.0033882,13.4153156 C18.4665499,13.9213905 17.6028544,13.9213905 17.0660161,13.4153156 C16.5196693,12.9002771 16.5196693,12.0580707 17.0660161,11.5430322 L20.135938,8.64903121 L11.5411606,8.64903121 Z" transform="rotate(-90 17.538 7.333)"/>
</svg>
