<svg xmlns="http://www.w3.org/2000/svg" width="44" height="79" viewBox="0 0 44 79">
  <path d="M31.3506311,2 C31.803254,2 32.2102765,2.27661216 32.3783764,2.6984548 L33.6796056,5.96385806 L34.7015653,8.18649685 C35.3048152,8.01672068 35.9409598,7.92592593 36.5982307,7.92592593 C40.4700036,7.92592593 43.6086957,11.0765147 43.6086957,14.962963 C43.6086957,18.8494113 40.4700036,22 36.5982307,22 C32.7264578,22 29.5877657,18.8494113 29.5877657,14.962963 C29.5877657,12.5281474 30.8196647,10.3821478 32.6919486,9.11872016 L32.0670483,7.75963759 L27.0322444,15.5667624 C26.8282455,15.8830894 26.4784302,16.0740741 26.1030317,16.0740741 L24.4992533,16.0740741 C23.9685436,19.4325766 21.0708078,22 17.5756824,22 C13.7039095,22 10.5652174,18.8494113 10.5652174,14.962963 C10.5652174,11.0765147 13.7039095,7.92592593 17.5756824,7.92592593 C18.5273217,7.92592593 19.434674,8.1162601 20.2620191,8.46107291 L21.6097866,6.26264945 L21.3695124,5.53909465 L19.5435322,5.53909465 C18.9321997,5.53909465 18.4366167,5.04163326 18.4366167,4.42798354 C18.4366167,3.81433381 18.9321997,3.31687243 19.5435322,3.31687243 L22.167332,3.31687243 C22.6437821,3.31687243 23.0667775,3.62290586 23.2174443,4.07661935 L23.6223421,5.29591701 L31.0429394,5.33072414 L30.6012128,4.22222223 L28.7268313,4.22222223 C28.1154989,4.22222223 27.6199159,3.72476084 27.6199159,3.11111111 C27.6199159,2.49746139 28.1154989,2 28.7268313,2 L31.3506311,2 Z M36.5982307,10.1481482 C36.2725708,10.1481482 35.9544911,10.1807251 35.6470491,10.2428097 L37.603265,14.4973428 C37.8594489,15.0545118 37.6171579,15.7146518 37.0620927,15.9718068 C36.5070275,16.2289616 35.8493802,15.9857521 35.5931964,15.4285831 L33.6372939,11.174732 C32.5195508,12.0562388 31.8015967,13.4254395 31.8015967,14.962963 C31.8015967,17.6221118 33.949123,19.7777778 36.5982307,19.7777778 C39.2473384,19.7777778 41.3948646,17.6221118 41.3948646,14.962963 C41.3948646,12.3038142 39.2473384,10.1481482 36.5982307,10.1481482 Z M17.5756824,10.1481482 C14.9265746,10.1481482 12.7790484,12.3038142 12.7790484,14.962963 C12.7790484,17.6221118 14.9265746,19.7777778 17.5756824,19.7777778 C19.8438125,19.7777778 21.7442557,18.1975555 22.2439644,16.0740741 L17.5756824,16.0740741 C16.7097195,16.0740741 16.1791196,15.1209324 16.6329686,14.3806325 L19.0797178,10.3895947 C18.6066567,10.2329255 18.1010326,10.1481482 17.5756824,10.1481482 Z M23.4400399,7.5173084 L22.1465383,9.6272157 C23.3755836,10.6890397 24.2337122,12.171422 24.4992533,13.8518519 L25.5009835,13.8518519 L29.5675861,7.54605031 L23.4400399,7.5173084 Z M20.9644457,11.555397 L19.556579,13.8518519 L22.2439644,13.8518519 C22.0357455,12.9670383 21.5843272,12.176547 20.9644457,11.555397 Z M12.3043478,5.47826087 L3.60869565,5.47826087 C3.12844804,5.47826087 2.73913043,5.86757848 2.73913043,6.34782609 C2.73913043,6.8280737 3.12844804,7.2173913 3.60869565,7.2173913 L12.3043478,7.2173913 C12.7845954,7.2173913 13.173913,6.8280737 13.173913,6.34782609 C13.173913,5.86757848 12.7845954,5.47826087 12.3043478,5.47826087 Z M7.95652174,9.82608696 L1,9.82608696 C0.519752391,9.82608696 0.130434783,10.2154046 0.130434783,10.6956522 C0.130434783,11.1758998 0.519752391,11.5652174 1,11.5652174 L7.95652174,11.5652174 C8.43676935,11.5652174 8.82608696,11.1758998 8.82608696,10.6956522 C8.82608696,10.2154046 8.43676935,9.82608696 7.95652174,9.82608696 Z M7.95652174,14.173913 L2.73913043,14.173913 C2.25888283,14.173913 1.86956522,14.5632307 1.86956522,15.0434783 C1.86956522,15.5237259 2.25888283,15.9130435 2.73913043,15.9130435 L7.95652174,15.9130435 C8.43676935,15.9130435 8.82608696,15.5237259 8.82608696,15.0434783 C8.82608696,14.5632307 8.43676935,14.173913 7.95652174,14.173913 Z M22.7854137,61 C23.2380366,61 23.6450591,61.2766122 23.813159,61.6984548 L25.1143883,64.9638581 L26.1363479,67.1864969 C26.7395978,67.0167207 27.3757425,66.9259259 28.0330133,66.9259259 C31.6387735,66.9259259 34.6087259,69.6584603 34.9998102,73.1731038 L36.8015752,73.173913 C38.1267201,73.173913 39.3304335,73.9260277 39.9155375,75.1024199 L39.9986014,75.2820198 L41.9296913,79.7878963 C42.1188701,80.2293135 41.9143905,80.7405125 41.4729733,80.9296913 C41.0655113,81.1043179 40.5985901,80.9435196 40.3803729,80.5705615 L40.3311782,80.4729733 L38.4000883,75.9670969 C38.1456133,75.3733217 37.5852897,74.9734197 36.9495246,74.9193203 L36.8015752,74.9130435 L34.9800186,74.9138607 C34.5175413,78.3505816 31.5835114,81 28.0330133,81 C24.1612404,81 21.0225483,77.8494113 21.0225483,73.962963 C21.0225483,71.5281474 22.2544473,69.3821478 24.1267312,68.1187202 L23.5018309,66.7596376 L18.467027,74.5667624 C18.2630281,74.8830894 17.9132128,75.0740741 17.5378143,75.0740741 L15.9340359,75.0740741 C15.4033262,78.4325766 12.5055904,81 9.010465,81 C5.13869209,81 2,77.8494113 2,73.962963 C2,70.0765147 5.13869209,66.9259259 9.010465,66.9259259 C9.96210435,66.9259259 10.8694566,67.1162601 11.6968017,67.4610729 L13.0445692,65.2626495 L12.804295,64.5390947 L10.9783148,64.5390947 C10.3669823,64.5390947 9.87139929,64.0416333 9.87139929,63.4279835 C9.87139929,62.8143338 10.3669823,62.3168724 10.9783148,62.3168724 L13.6021146,62.3168724 C14.0785647,62.3168724 14.5015601,62.6229059 14.6522269,63.0766194 L15.0571247,64.295917 L22.477722,64.3307241 L22.0359954,63.2222222 L20.1616139,63.2222222 C19.5502815,63.2222222 19.0546985,62.7247608 19.0546985,62.1111111 C19.0546985,61.4974614 19.5502815,61 20.1616139,61 L22.7854137,61 Z M9.010465,69.1481482 C6.36135721,69.1481482 4.21383105,71.3038142 4.21383105,73.962963 C4.21383105,76.6221118 6.36135721,78.7777778 9.010465,78.7777778 C11.2785952,78.7777778 13.1790383,77.1975555 13.678747,75.0740741 L9.010465,75.0740741 C8.14450208,75.0740741 7.61390224,74.1209324 8.06775118,73.3806325 L10.5145005,69.3895947 C10.0414393,69.2329255 9.53581519,69.1481482 9.010465,69.1481482 Z M28.0330133,69.1481482 C27.7073534,69.1481482 27.3892737,69.1807251 27.0818317,69.2428097 L29.0380476,73.4973428 C29.2942315,74.0545118 29.0519405,74.7146518 28.4968754,74.9718068 C27.9418101,75.2289616 27.2841628,74.9857521 27.027979,74.4285831 L25.0720765,70.174732 C23.9543334,71.0562388 23.2363793,72.4254395 23.2363793,73.962963 C23.2363793,76.564348 25.291619,78.6838866 27.8611032,78.7747431 L30.0591261,74.9264733 C30.6263653,73.9338047 31.6409726,73.28925 32.7667176,73.1879313 C32.3992777,70.8979049 30.4197127,69.1481482 28.0330133,69.1481482 Z M32.7286099,74.9507453 L32.623418,74.9737618 C32.2385263,75.0782833 31.8977947,75.313155 31.6630499,75.6424975 L31.5691142,75.7893236 L30.1410254,78.2890962 C31.4495815,77.6454179 32.4231828,76.4211402 32.7286099,74.9507453 Z M14.8748226,66.5173084 L13.5813209,68.6272157 C14.8103662,69.6890397 15.6684948,71.171422 15.9340359,72.8518519 L16.9357661,72.8518519 L21.0023687,66.5460503 L14.8748226,66.5173084 Z M12.3992283,70.555397 L10.9913616,72.8518519 L13.678747,72.8518519 C13.4705281,71.9670383 13.0191098,71.176547 12.3992283,70.555397 Z M22.260989,33.5 C23.0302428,33.5 23.6538462,34.1236034 23.6538462,34.8928571 L23.6538462,45.2485488 L27.6043325,41.3356861 C28.1523715,40.7928666 29.0399362,40.7928666 29.5879751,41.3356861 C30.1373416,41.8798205 30.1373416,42.7630367 29.5879751,43.3071711 L23.2418213,49.5928854 C22.6937824,50.1357049 21.8062176,50.1357049 21.2581787,49.5928854 L14.9120249,43.3071711 C14.3626584,42.7630367 14.3626584,41.8798205 14.9120249,41.3356861 C15.4600638,40.7928666 16.3476285,40.7928666 16.8956675,41.3356861 L20.8461538,45.2485488 L20.8461538,34.8928571 C20.8461538,34.1236034 21.4697572,33.5 22.239011,33.5 L22.260989,33.5 Z" transform="translate(0 -2)"/>
</svg>
