<svg xmlns="http://www.w3.org/2000/svg" width="16" height="10" viewBox="0 0 16 10">
  <path fill="#006AB3" fill-rule="evenodd" d="M7.99978958,0 C3.58178805,0 0,2.23902812 0,5.00020113 C0,7.76137415 3.58178805,10 7.99978958,10 C12.4182119,10 16,7.76137415 16,5.00020113 C16,2.23902812 12.4182119,0 7.99978958,0 L7.99978958,0 Z M7.99978958,9.46980973 C4.33972487,9.46980973 1.37320813,7.46852247 1.37320813,5.00020113 C1.37320813,2.53147753 4.33972487,0.530190273 7.99978958,0.530190273 C11.6598543,0.530190273 14.6272127,2.53147753 14.6272127,5.00020113 C14.6272127,7.46852247 11.6598543,9.46980973 7.99978958,9.46980973 L7.99978958,9.46980973 Z M10.5820774,4.88314091 C10.399011,4.81837564 10.3977485,4.79343497 10.5820774,4.69085643 C11.0193324,4.44667927 11.292459,3.94826823 11.292459,3.44744358 C11.292459,2.51940947 9.99373997,1.59016855 7.92614219,1.59016855 C6.19984744,1.59016855 5.07072779,2.29534575 4.59938452,2.64009011 C4.41505563,2.78007965 4.440727,2.84725854 4.50006576,2.91282835 L4.80265131,3.24188423 C4.89607828,3.34446277 4.94489597,3.31228127 5.00170967,3.26722716 C5.21802257,3.09746973 5.24706068,3.19522105 5.24706068,3.38428738 L5.24706068,6.68771873 C5.24706068,6.8763828 5.21802257,6.97413412 5.00170967,6.80477895 C4.93942502,6.76656342 4.89607828,6.72714108 4.80265131,6.82971962 L4.47944449,7.19055473 C4.41968489,7.25652681 4.38433415,7.33577376 4.57834241,7.46369524 C5.08798232,7.79958969 6.34125043,8.48223983 7.98674347,8.48223983 C10.3089508,8.48223983 11.7616981,7.54495354 11.7616981,6.30355203 C11.7616981,5.44752404 11.0357453,5.04364616 10.5820774,4.88314091 L10.5820774,4.88314091 Z M7.05373629,2.7523231 C7.05373629,2.53630476 7.21028959,2.41160143 7.47584103,2.41160143 L8.04103212,2.41160143 C8.62179437,2.41160143 9.15963071,2.80220443 9.15963071,3.42934149 C9.15963071,4.05647854 8.62179437,4.47483809 8.04103212,4.47483809 L7.22291486,4.47483809 C7.10676241,4.47483809 7.05373629,4.42938171 7.05373629,4.31594191 L7.05373629,2.7523231 L7.05373629,2.7523231 Z M8.3469844,7.63224587 L7.47584103,7.63224587 C7.21028959,7.63224587 7.05373629,7.50794481 7.05373629,7.29192647 L7.05373629,5.38919506 C7.05373629,5.27575526 7.10676241,5.23029889 7.22291486,5.23029889 L8.3469844,5.23029889 C9.15037218,5.23029889 9.65159526,5.86507905 9.65159526,6.44675972 C9.65159526,7.08355123 9.15037218,7.63224587 8.3469844,7.63224587 L8.3469844,7.63224587 Z"/>
</svg>
