<svg xmlns="http://www.w3.org/2000/svg" width="44" height="20" viewBox="0 0 44 20">
  <g fill="none" fill-rule="evenodd" transform="translate(1)">
    <path fill="#000" fill-rule="nonzero" d="M30.0429394,3.33072414 L29.6012128,2.22222223 L27.7268313,2.22222223 C27.1154989,2.22222223 26.6199159,1.72476084 26.6199159,1.11111111 C26.6199159,0.497461389 27.1154989,0 27.7268313,0 L30.3506311,0 C30.803254,0 31.2102765,0.27661216 31.3783764,0.698454804 L32.6796056,3.96385806 L33.7015653,6.18649685 C34.3048152,6.01672068 34.9409598,5.92592593 35.5982307,5.92592593 C39.4700036,5.92592593 42.6086957,9.07651473 42.6086957,12.962963 C42.6086957,16.8494113 39.4700036,20 35.5982307,20 C31.7264578,20 28.5877657,16.8494113 28.5877657,12.962963 C28.5877657,10.5281474 29.8196647,8.38214775 31.6919486,7.11872016 L31.0670483,5.75963759 L26.0322444,13.5667624 C25.8282455,13.8830894 25.4784302,14.0740741 25.1030317,14.0740741 L23.4992533,14.0740741 C22.9685436,17.4325766 20.0708078,20 16.5756824,20 C12.7039095,20 9.56521739,16.8494113 9.56521739,12.962963 C9.56521739,9.07651473 12.7039095,5.92592593 16.5756824,5.92592593 C17.5273217,5.92592593 18.434674,6.1162601 19.2620191,6.46107291 L20.6097866,4.26264945 L20.3695124,3.53909465 L18.5435322,3.53909465 C17.9321997,3.53909465 17.4366167,3.04163326 17.4366167,2.42798354 C17.4366167,1.81433381 17.9321997,1.31687243 18.5435322,1.31687243 L21.167332,1.31687243 C21.6437821,1.31687243 22.0667775,1.62290586 22.2174443,2.07661935 L22.6223421,3.29591701 L30.0429394,3.33072414 Z M32.6372939,9.17473195 C31.5195508,10.0562388 30.8015967,11.4254395 30.8015967,12.962963 C30.8015967,15.6221118 32.949123,17.7777778 35.5982307,17.7777778 C38.2473384,17.7777778 40.3948646,15.6221118 40.3948646,12.962963 C40.3948646,10.3038142 38.2473384,8.14814815 35.5982307,8.14814815 C35.2725708,8.14814815 34.9544911,8.18072511 34.6470491,8.24280965 L36.603265,12.4973428 C36.8594489,13.0545118 36.6171579,13.7146518 36.0620927,13.9718068 C35.5070275,14.2289616 34.8493802,13.9857521 34.5931964,13.4285831 L32.6372939,9.17473195 Z M23.4992533,11.8518519 L24.5009835,11.8518519 L28.5675861,5.54605031 L22.4400399,5.5173084 L21.1465383,7.6272157 C22.3755836,8.68903968 23.2337122,10.171422 23.4992533,11.8518519 Z M18.0797178,8.38959466 C17.6066567,8.23292554 17.1010326,8.14814815 16.5756824,8.14814815 C13.9265746,8.14814815 11.7790484,10.3038142 11.7790484,12.962963 C11.7790484,15.6221118 13.9265746,17.7777778 16.5756824,17.7777778 C18.8438125,17.7777778 20.7442557,16.1975555 21.2439644,14.0740741 L16.5756824,14.0740741 C15.7097195,14.0740741 15.1791196,13.1209324 15.6329686,12.3806325 L18.0797178,8.38959466 Z M19.9644457,9.55539703 L18.556579,11.8518519 L21.2439644,11.8518519 C21.0357455,10.9670383 20.5843272,10.176547 19.9644457,9.55539703 Z"/>
    <path stroke="#000" stroke-linecap="round" stroke-linejoin="round" stroke-width="1.739" d="M11.3043478 4.34782609L2.60869565 4.34782609M6.95652174 8.69565217L0 8.69565217M6.95652174 13.0434783L1.73913043 13.0434783"/>
  </g>
</svg>
