<svg xmlns="http://www.w3.org/2000/svg" width="20" height="20" viewBox="0 0 20 20">
  <path d="M39,73.75 C43.5563492,73.75 47.25,77.4436508 47.25,82 C47.25,83.8274246 46.6558436,85.5160766 45.6501725,86.8833142 L49.3838835,90.6161165 C49.8720388,91.1042719 49.8720388,91.8957281 49.3838835,92.3838835 C48.9282718,92.8394952 48.2084514,92.8698693 47.7176119,92.4750058 L47.6161165,92.3838835 L43.8833142,88.6501725 C42.5160766,89.6558436 40.8274246,90.25 39,90.25 C34.4436508,90.25 30.75,86.5563492 30.75,82 C30.75,77.4436508 34.4436508,73.75 39,73.75 Z M39,76.25 C35.8243627,76.25 33.25,78.8243627 33.25,82 C33.25,85.1756373 35.8243627,87.75 39,87.75 C42.1756373,87.75 44.75,85.1756373 44.75,82 C44.75,78.8243627 42.1756373,76.25 39,76.25 Z" transform="translate(-30 -73)"/>
</svg>
