<svg xmlns="http://www.w3.org/2000/svg" width="16" height="10" viewBox="0 0 16 10">
  <path fill="#18DB4F" d="M9.91552854,1.66536207 L9.70163988,1.11111111 L8.79404465,1.11111111 C8.49803103,1.11111111 8.25806455,0.862380419 8.25806455,0.555555556 C8.25806455,0.248730694 8.49803103,0 8.79404465,0 L10.0645161,0 C10.2836809,0 10.4807655,0.13830608 10.5621612,0.349227402 L11.1922301,1.98192903 L11.6870737,3.09324843 C11.9791737,3.00836034 12.2872016,2.96296296 12.6054591,2.96296296 C14.4802123,2.96296296 16,4.53825736 16,6.4814815 C16,8.42470563 14.4802123,10 12.6054591,10 C10.7307059,10 9.21091814,8.42470563 9.21091814,6.4814815 C9.21091814,5.26407368 9.80741658,4.19107388 10.7139962,3.55936008 L10.4114129,2.87981879 L7.97350781,6.78338119 C7.8747294,6.94154469 7.70534513,7.03703706 7.52357323,7.03703706 L6.74700686,7.03703706 C6.49003164,8.71628831 5.08691744,10 3.39454095,10 C1.51978775,10 0,8.42470563 0,6.4814815 C0,4.53825736 1.51978775,2.96296296 3.39454095,2.96296296 C3.85533474,2.96296296 4.29468427,3.05813005 4.69529348,3.23053646 L5.34789668,2.13132473 L5.23155338,1.76954733 L4.34739454,1.76954733 C4.05138088,1.76954733 3.81141439,1.52081663 3.81141439,1.21399177 C3.81141439,0.907166906 4.05138088,0.658436213 4.34739454,0.658436213 L5.61786601,0.658436213 C5.84856817,0.658436213 6.05338699,0.811452931 6.12634144,1.03830968 L6.32239722,1.64795851 L9.91552854,1.66536207 Z M11.1717423,4.58736598 C10.6305193,5.02811942 10.2828784,5.71271976 10.2828784,6.4814815 C10.2828784,7.81105588 11.3227332,8.88888888 12.6054591,8.88888888 C13.8881849,8.88888888 14.9280397,7.81105588 14.9280397,6.4814815 C14.9280397,5.15190708 13.8881849,4.07407408 12.6054591,4.07407408 C12.4477711,4.07407408 12.2937536,4.09036256 12.1448869,4.12140483 L13.0921073,6.24867138 C13.2161542,6.52725588 13.0988343,6.85732588 12.830066,6.98590338 C12.5612975,7.11448081 12.2428578,6.99287606 12.1188109,6.71429156 L11.1717423,4.58736598 Z M6.74700686,5.92592593 L7.23205518,5.92592593 L9.20114695,2.77302516 L6.23412461,2.7586542 L5.6077975,3.81360785 C6.20291418,4.34451984 6.61842905,5.08571101 6.74700686,5.92592593 Z M4.12281075,4.19479733 C3.89374958,4.11646277 3.64892104,4.07407408 3.39454095,4.07407408 C2.11181507,4.07407408 1.0719603,5.15190708 1.0719603,6.4814815 C1.0719603,7.81105588 2.11181507,8.88888888 3.39454095,8.88888888 C4.49279344,8.88888888 5.41300801,8.09877775 5.65497225,7.03703706 L3.39454095,7.03703706 C2.97523259,7.03703706 2.71831056,6.56046619 2.93806899,6.19031624 L4.12281075,4.19479733 Z M5.03541582,4.77769851 L4.35371195,5.92592593 L5.65497225,5.92592593 C5.55415045,5.48351916 5.33556898,5.08827348 5.03541582,4.77769851 Z"/>
</svg>
