<svg xmlns="http://www.w3.org/2000/svg" width="97" height="43" viewBox="0 0 97 43">
  <path fill="#18DB4F" d="M144.97,75 L144.97,66.51 C144.97,64.74 146.11,63.51 147.76,63.51 C149.41,63.51 150.34,64.59 150.34,66.36 L150.34,70.86 C150.34,73.74 151.66,75.18 154.33,75.18 C155.2,75.18 155.83,75.12 156.25,74.97 L156.25,71.19 L155.949563,71.2140525 C155.89551,71.217551 155.842857,71.22 155.8,71.22 C155.05,71.22 154.81,70.8 154.81,69.63 L154.81,65.82 C154.81,61.89 152.77,59.55 149.2,59.55 C147.19,59.55 145.57,60.39 144.97,61.71 L144.97,54.09 L140.5,54.09 L140.5,75 L144.97,75 Z M164.38,59.43 C162.04,59.43 160.06,60.21 158.41,61.77 C156.79,63.3 155.98,65.19 155.98,67.44 C155.98,69.69 156.79,71.58 158.41,73.14 C160.06,74.67 162.04,75.45 164.38,75.45 C166.69,75.45 168.67,74.67 170.32,73.14 C171.97,71.58 172.78,69.69 172.78,67.44 C172.78,65.19 171.97,63.3 170.32,61.77 C168.67,60.21 166.69,59.43 164.38,59.43 Z M160.45,67.44 C160.45,66.33 160.84,65.4 161.59,64.65 C162.34,63.87 163.27,63.48 164.38,63.48 C165.49,63.48 166.42,63.87 167.17,64.65 C167.92,65.4 168.31,66.33 168.31,67.44 C168.31,68.55 167.92,69.48 167.17,70.26 C166.42,71.01 165.49,71.4 164.38,71.4 C163.27,71.4 162.34,71.01 161.59,70.26 C160.84,69.51 160.45,68.55 160.45,67.44 Z M178.09,80.79 L178.09,73.02 C178.54,74.34 180.31,75.27 182.59,75.27 C184.72,75.27 186.52,74.52 187.93,73.02 C189.37,71.49 190.09,69.63 190.09,67.44 C190.09,65.25 189.37,63.39 187.93,61.89 C186.52,60.36 184.72,59.61 182.59,59.61 C180.31,59.61 178.54,60.54 178.09,61.86 L178.09,59.88 L173.62,59.88 L173.62,80.79 L178.09,80.79 Z M181.78,71.22 C180.67,71.22 179.74,70.86 178.96,70.14 C178.21,69.39 177.82,68.49 177.82,67.44 C177.82,66.39 178.21,65.49 178.96,64.77 C179.74,64.02 180.67,63.66 181.78,63.66 C182.86,63.66 183.76,64.02 184.51,64.77 C185.26,65.49 185.62,66.39 185.62,67.44 C185.62,68.49 185.26,69.39 184.51,70.14 C183.76,70.86 182.86,71.22 181.78,71.22 Z M195.37,80.79 L195.37,73.02 C195.82,74.34 197.59,75.27 199.87,75.27 C202,75.27 203.8,74.52 205.21,73.02 C206.65,71.49 207.37,69.63 207.37,67.44 C207.37,65.25 206.65,63.39 205.21,61.89 C203.8,60.36 202,59.61 199.87,59.61 C197.59,59.61 195.82,60.54 195.37,61.86 L195.37,59.88 L190.9,59.88 L190.9,80.79 L195.37,80.79 Z M199.06,71.22 C197.95,71.22 197.02,70.86 196.24,70.14 C195.49,69.39 195.1,68.49 195.1,67.44 C195.1,66.39 195.49,65.49 196.24,64.77 C197.02,64.02 197.95,63.66 199.06,63.66 C200.14,63.66 201.04,64.02 201.79,64.77 C202.54,65.49 202.9,66.39 202.9,67.44 C202.9,68.49 202.54,69.39 201.79,70.14 C201.04,70.86 200.14,71.22 199.06,71.22 Z M207.52,67.53 C207.52,69.9 208.27,71.79 209.8,73.23 C211.33,74.64 213.31,75.36 215.8,75.36 C218.35,75.36 220.54,74.43 222.31,72.6 L219.7,70.11 C218.65,71.1 217.42,71.58 216.01,71.58 C213.64,71.58 212.08,70.41 211.99,68.61 L223.42,68.61 C223.45,68.16 223.48,67.68 223.48,67.17 C223.48,64.98 222.76,63.18 221.32,61.71 C219.88,60.24 218.02,59.49 215.71,59.49 C213.34,59.49 211.36,60.21 209.83,61.68 C208.372857,63.0514286 207.595986,64.8582313 207.525303,67.074493 L207.52,67.53 Z M212.05,65.7 C212.17,64.29 213.76,63.18 215.71,63.18 C217.51,63.18 218.98,64.29 218.98,65.7 L212.05,65.7 Z M228.67,75 L228.67,67.62 C228.67,65.13 230.17,63.69 232.72,63.69 C233.26,63.69 233.77,63.75 234.22,63.84 L234.22,59.64 C233.74,59.58 233.35,59.55 233.05,59.55 C230.98,59.55 229.36,60.42 228.67,61.95 L228.67,59.88 L224.2,59.88 L224.2,75 L228.67,75 Z M232.03,74.55 C231.07,73.59 231.07,72.09 232.03,71.13 C233.02,70.17 234.52,70.17 235.48,71.13 C236.47,72.09 236.47,73.59 235.48,74.55 C234.52,75.51 233.02,75.51 232.03,74.55 Z M173.6,84 C173.6,91.8188633 177.411589,96.2 184.5,96.2 C191.598059,96.2 195.378155,91.8045393 195.29989,83.9780011 L190.90011,84.0219989 C190.955178,89.5287941 189.001941,91.8 184.5,91.8 C179.988411,91.8 178,89.51447 178,84 L173.6,84 Z" transform="translate(-140 -54)"/>
</svg>
