<?xml version="1.0" encoding="UTF-8"?>
<svg width="25px" height="25px" viewBox="0 0 25 25" version="1.1" xmlns="http://www.w3.org/2000/svg" xmlns:xlink="http://www.w3.org/1999/xlink">
    <!-- Generator: Sketch 52.6 (67491) - http://www.bohemiancoding.com/sketch -->
    <title>Combined Shape</title>
    <desc>Created with Sketch.</desc>
    <g id="Design" stroke="none" stroke-width="1" fill="none" fill-rule="evenodd">
        <path d="M11.1587069,18.4132603 C15.1652861,18.4132603 18.4132603,15.1652861 18.4132603,11.1587069 C18.4132603,7.15212777 15.1652861,3.90415362 11.1587069,3.90415362 C7.15212777,3.90415362 3.90415362,7.15212777 3.90415362,11.1587069 C3.90415362,15.1652861 7.15212777,18.4132603 11.1587069,18.4132603 Z M11.1587069,21.5674139 C5.41013683,21.5674139 0.75,16.907277 0.75,11.1587069 C0.75,5.41013683 5.41013683,0.75 11.1587069,0.75 C16.907277,0.75 21.5674139,5.41013683 21.5674139,11.1587069 C21.5674139,16.907277 16.907277,21.5674139 11.1587069,21.5674139 Z M18.5821759,16.3518525 L24.2596524,22.029329 C25.7465347,23.5162113 23.5162113,25.7465347 22.029329,24.2596524 L16.3518525,18.5821759 C14.8649702,17.0952936 17.0952936,14.8649702 18.5821759,16.3518525 Z" id="Combined-Shape" fill="#000000" fill-rule="nonzero"></path>
    </g>
</svg>