<?xml version="1.0" encoding="UTF-8"?>
<svg width="17px" height="17px" viewBox="0 0 17 17" version="1.1" xmlns="http://www.w3.org/2000/svg" xmlns:xlink="http://www.w3.org/1999/xlink">
    <!-- Generator: Sketch 54.1 (76490) - https://sketchapp.com -->
    <title>Combined Shape</title>
    <desc>Created with Sketch.</desc>
    <g id="UI-•-Mobile" stroke="none" stroke-width="1" fill="none" fill-rule="evenodd">
        <path d="M10.8393073,2.56494059 L11.2392678,2.2335108 C12.0097041,1.59508392 13.1514317,1.70255977 13.7893876,2.47356484 L13.8142481,2.50428607 L14.8662517,3.83367855 C15.4776973,4.60634811 15.360095,5.72635689 14.6015142,6.35495962 L14.1238397,6.75078762 C14.1352914,6.79941959 14.1461782,6.84821323 14.156497,6.8971603 L14.7122041,7.02844533 C15.6790012,7.25684983 16.281544,8.22193697 16.0627703,9.19163442 L15.6834435,10.8729708 C15.4631485,11.8494113 14.4935865,12.4622566 13.5178663,12.2417989 L13.5006141,12.2378121 L12.9837563,12.1157052 C12.9578522,12.1494956 12.9316119,12.1830173 12.9050399,12.216265 L13.1664074,12.7646367 C13.5916987,13.6569346 13.2240374,14.7256981 12.3400083,15.1669164 L10.8530639,15.9090494 C9.95793249,16.3558088 8.87038215,15.9917959 8.42395222,15.0960037 L8.40999899,15.0673786 L8.1594514,14.541708 C8.14218252,14.541853 8.12490561,14.5419255 8.10762098,14.5419255 C8.09033634,14.5419255 8.07305943,14.541853 8.05579056,14.541708 L7.80524297,15.0673786 C7.3746106,15.9708826 6.29361963,16.3539632 5.39078206,15.9230129 L5.36217806,15.9090494 L3.8752337,15.1669164 C2.99120456,14.7256981 2.6235433,13.6569346 3.04883456,12.7646367 L3.31020207,12.216265 C3.28363009,12.1830173 3.25738981,12.1494956 3.23148565,12.1157052 L2.71462781,12.2378121 C1.74110778,12.4678049 0.765605418,11.8644744 0.535782297,10.8902357 L0.531798437,10.8729708 L0.152471656,9.19163442 C-0.0663020593,8.22193697 0.536240788,7.25684983 1.50303789,7.02844533 L2.05874494,6.8971603 C2.06906377,6.84821323 2.07995059,6.79941959 2.09140226,6.75078762 L1.61372772,6.35495962 C0.855146922,5.72635689 0.737544696,4.60634811 1.34899027,3.83367855 L2.40099386,2.50428607 C3.02199545,1.71954079 4.16110917,1.58717194 4.94527557,2.20863196 L4.97597414,2.2335108 L5.37593466,2.56494059 C5.40823827,2.54870281 5.4406842,2.53275233 5.47326903,2.51709128 L5.47326903,1.91250403 C5.47326903,0.911485694 6.28415612,0.1 7.28443604,0.1 L8.93080592,0.1 C9.93108584,0.1 10.7419729,0.911485694 10.7419729,1.91250403 L10.7419729,2.51709128 C10.7745578,2.53275233 10.8070037,2.54870281 10.8393073,2.56494059 Z M9.0261305,3.08669957 L9.0261305,1.91250403 C9.0261305,1.85981885 8.98345223,1.81710908 8.93080592,1.81710908 L7.28443604,1.81710908 C7.23178973,1.81710908 7.18911146,1.85981885 7.18911146,1.91250403 L7.18911146,3.08669957 C7.18911146,3.44834383 6.96266018,3.77121344 6.62279869,3.89413676 C6.31612207,4.00505756 6.02250253,4.15024828 5.74674264,4.32685023 C5.43255316,4.52806323 5.02444723,4.50305106 4.73714149,4.26497336 L3.88164859,3.55606381 C3.83876096,3.52204597 3.7788076,3.52901275 3.74612331,3.57031514 L2.69411972,4.89970762 C2.66193838,4.94037444 2.66812797,4.99932227 2.70805327,5.03240662 L3.61687115,5.78550425 C3.89069303,6.01240847 3.99630556,6.38481181 3.88241147,6.72183357 C3.77618729,7.03615949 3.70344352,7.3625733 3.66593994,7.69683223 C3.62550593,8.05720939 3.36317093,8.35330001 3.01049109,8.43662014 L1.8972678,8.69961762 C1.84638374,8.71163891 1.81467096,8.76243297 1.82618536,8.81346968 L2.20551215,10.4948061 C2.21781778,10.5469905 2.26916001,10.5787447 2.3203979,10.5666398 L3.40613586,10.3101357 C3.76511071,10.2253284 4.13807612,10.3796273 4.33242008,10.6933472 C4.50766764,10.9762408 4.7126513,11.2388342 4.94329597,11.4762374 C5.19354348,11.7338178 5.2570751,12.1200856 5.10252576,12.4443436 L4.59752806,13.5038725 C4.57514431,13.5508356 4.5944949,13.6070863 4.64102275,13.6303083 L6.12796711,14.3724412 C6.17699035,14.3958577 6.23388461,14.3756956 6.25654947,14.3281428 L6.75514981,13.282036 C6.91230117,12.9523188 7.26072729,12.758223 7.62356032,12.7982754 C7.78340778,12.8159207 7.94489693,12.8248164 8.10762098,12.8248164 C8.27034502,12.8248164 8.43183418,12.8159207 8.59168163,12.7982754 C8.95451467,12.758223 9.30294078,12.9523188 9.46009215,13.282036 L9.95869249,14.3281428 L9.95942687,14.3296493 C9.98292318,14.3767963 10.0401627,14.3959549 10.0872748,14.3724412 L11.5742192,13.6303083 C11.6207471,13.6070863 11.6400977,13.5508356 11.6177139,13.5038725 L11.1127162,12.4443436 C10.9581669,12.1200856 11.0216985,11.7338178 11.271946,11.4762374 C11.5025907,11.2388342 11.7075743,10.9762408 11.8828219,10.6933472 C12.0771658,10.3796273 12.4501312,10.2253284 12.8091061,10.3101357 L13.8948441,10.5666398 C13.9471058,10.5784527 13.9981353,10.5461977 14.0097298,10.4948061 L14.3890566,8.81346968 C14.400571,8.76243297 14.3688582,8.71163891 14.3179742,8.69961762 L13.2047509,8.43662014 C12.852071,8.35330001 12.589736,8.05720939 12.549302,7.69683223 C12.5117984,7.3625733 12.4390547,7.03615949 12.3328305,6.72183357 C12.2189364,6.38481181 12.3245489,6.01240847 12.5983708,5.78550425 L13.5071887,5.03240662 C13.547114,4.99932227 13.5533036,4.94037444 13.5211222,4.89970762 L12.4691186,3.57031514 C12.4342336,3.52811901 12.3741427,3.52246239 12.3335934,3.55606381 L11.4781005,4.26497336 C11.1907947,4.50305106 10.7826888,4.52806323 10.4684993,4.32685023 C10.1927394,4.15024828 9.89911989,4.00505756 9.59244327,3.89413676 C9.25258178,3.77121344 9.0261305,3.44834383 9.0261305,3.08669957 Z M8.10762098,10.7603855 C6.64668584,10.7603855 5.4623639,9.57518932 5.4623639,8.1131757 C5.4623639,6.65116208 6.64668584,5.46596587 8.10762098,5.46596587 C9.56855612,5.46596587 10.7528781,6.65116208 10.7528781,8.1131757 C10.7528781,9.57518932 9.56855612,10.7603855 8.10762098,10.7603855 Z M8.10762098,9.04327645 C8.62092252,9.04327645 9.03703563,8.62685616 9.03703563,8.1131757 C9.03703563,7.59949524 8.62092252,7.18307495 8.10762098,7.18307495 C7.59431944,7.18307495 7.17820633,7.59949524 7.17820633,8.1131757 C7.17820633,8.62685616 7.59431944,9.04327645 8.10762098,9.04327645 Z" id="Combined-Shape" fill="#000000" fill-rule="nonzero"></path>
    </g>
</svg>